<svg width="19" height="20" viewBox="0 0 19 20" fill="none" xmlns="http://www.w3.org/2000/svg">
<path d="M4.66492 11.4125H4.66491V11.4154V18.4205C4.66491 18.7437 4.53651 19.0537 4.30795 19.2822C4.0794 19.5108 3.76941 19.6392 3.44618 19.6392L1.58977 19.6392L1.58743 19.6392C1.42672 19.6403 1.26739 19.6095 1.11861 19.5487C0.96983 19.4879 0.834543 19.3983 0.720536 19.2851L0.467332 19.5399L0.720535 19.2851C0.606526 19.1718 0.516046 19.0371 0.454304 18.8887C0.392563 18.7403 0.360779 18.5812 0.360783 18.4205L0.36079 11.4154L0.360775 11.413C0.359724 11.2516 0.390734 11.0916 0.452006 10.9423C0.513279 10.793 0.603593 10.6574 0.717708 10.5433C0.831823 10.4292 0.967466 10.3389 1.11676 10.2776L0.979798 9.94385L1.11676 10.2776C1.26606 10.2163 1.42604 10.1853 1.58742 10.1864V10.1864H1.58977H3.44618H3.44666C3.60737 10.1862 3.76653 10.2178 3.91495 10.2794C4.06337 10.3411 4.19811 10.4315 4.31138 10.5455C4.42465 10.6595 4.51422 10.7948 4.5749 10.9437C4.63558 11.0925 4.66618 11.2518 4.66492 11.4125ZM10.31 19.6392H10.3077L8.45129 19.6392C8.12671 19.6392 7.8153 19.5108 7.58505 19.282C7.35506 19.0535 7.22469 18.7434 7.2223 18.4192V1.59099C7.22466 1.26546 7.35502 0.9539 7.58524 0.723683C7.81545 0.493474 8.12699 0.363112 8.45252 0.360749H10.3077C10.6336 0.360749 10.9462 0.490232 11.1767 0.720713C11.4072 0.951192 11.5367 1.26379 11.5367 1.58974V18.4205C11.5367 18.5812 11.5049 18.7403 11.4432 18.8887C11.3814 19.0371 11.2909 19.1718 11.1769 19.2851C11.0629 19.3983 10.9276 19.4879 10.7789 19.5487C10.6301 19.6095 10.4707 19.6403 10.31 19.6392ZM18.3982 6.90236V6.90255V18.4205C18.3982 18.7437 18.2698 19.0537 18.0413 19.2822C17.8127 19.5108 17.5027 19.6392 17.1795 19.6392L15.3231 19.6392L15.3203 19.6392C15.1595 19.6405 15.0002 19.6099 14.8514 19.5492C14.7026 19.4885 14.5672 19.3989 14.4532 19.2857C14.3392 19.1724 14.2488 19.0377 14.1871 18.8892C14.1255 18.7408 14.0939 18.5817 14.0941 18.4209V18.4205V6.90255C14.0941 6.74115 14.1259 6.58134 14.1876 6.43223C14.2494 6.28312 14.3399 6.14764 14.454 6.03352C14.5682 5.9194 14.7036 5.82887 14.8528 5.76711C15.0019 5.70534 15.1617 5.67356 15.3231 5.67356H17.2143C17.5313 5.68519 17.8317 5.81898 18.0524 6.04705C18.2743 6.27643 18.3984 6.58316 18.3982 6.90236Z" fill="#086972" stroke="#086972" stroke-width="0.721498"/>
</svg>
