<svg width="19" height="19" viewBox="0 0 19 19" fill="none" xmlns="http://www.w3.org/2000/svg">
<path d="M5.64696 1.68971L5.64712 1.68964C6.32001 1.38802 6.76574 1.19113 7.14873 1.1244C7.49413 1.06422 7.78476 1.11173 8.14725 1.34702L8.14787 1.34742C8.48768 1.56702 8.66119 1.84726 8.75522 2.30765C8.85548 2.79852 8.85721 3.4519 8.85721 4.39608V5.83251V5.85965C8.8572 6.73965 8.8572 7.43663 8.93058 7.9821C9.00612 8.54361 9.16531 8.99818 9.52404 9.35691C9.88278 9.71565 10.3373 9.87484 10.8989 9.95038C11.4443 10.0238 12.1413 10.0238 13.0213 10.0237H13.0485H14.4849C15.429 10.0237 16.0825 10.0255 16.5734 10.1256C17.0339 10.2196 17.3141 10.3929 17.5336 10.7323L17.5338 10.7326C17.7692 11.0957 17.8167 11.3866 17.7566 11.732C17.6898 12.1149 17.493 12.5604 17.1914 13.2328L17.1912 13.2331C16.3828 15.0391 14.9851 16.5172 13.227 17.4253C11.4689 18.3333 9.45462 18.6175 7.51393 18.2313L7.5139 18.2313C5.81924 17.8941 4.26259 17.0621 3.0408 15.8403C1.819 14.6185 0.986928 13.0619 0.649788 11.3672C0.312648 9.67258 0.485584 7.91601 1.14673 6.31963C1.80786 4.72328 2.9275 3.35881 4.36406 2.39875C4.77108 2.12688 5.20022 1.8897 5.64696 1.68971Z" fill="#086972" stroke="#086972" stroke-width="0.721538"/>
<path d="M16.7733 2.10697C17.482 2.81571 18.0378 3.66235 18.4061 4.59451C18.6414 5.19183 18.4939 5.75192 18.114 6.17921C17.7264 6.6151 17.0957 6.90817 16.3994 6.90817H12.5689C12.4107 6.90817 12.2588 6.84528 12.1469 6.73335L11.8918 6.98846L12.1469 6.73335C12.035 6.62142 11.9721 6.46961 11.9721 6.31132V2.48085C11.9721 1.78498 12.265 1.15426 12.7008 0.766574C13.1279 0.386585 13.688 0.238904 14.2858 0.474133C15.2179 0.842493 16.0646 1.39824 16.7733 2.10697Z" fill="#086972" stroke="#086972" stroke-width="0.721538"/>
</svg>
