<svg width="21" height="21" viewBox="0 0 21 21" fill="none" xmlns="http://www.w3.org/2000/svg">
<path d="M4.80018 3.09844C5.22398 2.81536 5.67083 2.56839 6.13599 2.36016C7.44978 1.77125 8.10667 1.47728 8.97997 2.04416C9.85423 2.60912 9.85423 3.53796 9.85423 5.39565V6.832C9.85423 8.63797 9.85423 9.54 10.4154 10.1011C10.9765 10.6623 11.8785 10.6623 13.6845 10.6623H15.1209C16.9785 10.6623 17.9074 10.6623 18.4723 11.5356C19.0392 12.4098 18.7452 13.0667 18.1563 14.3795C17.3146 16.2601 15.8593 17.7992 14.0286 18.7447C12.198 19.6902 10.1006 19.9861 8.07985 19.5839C6.3153 19.2329 4.69446 18.3665 3.42228 17.0944C2.1501 15.8222 1.28371 14.2014 0.932663 12.4368C0.581619 10.6723 0.761686 8.84327 1.4501 7.18106C2.13851 5.51885 3.30434 4.09809 4.80018 3.09844Z" stroke="#086972" stroke-width="1.08225"/>
<path d="M19.3781 5.46193C18.9916 4.48382 18.4085 3.59544 17.6648 2.85177C16.9212 2.10811 16.0328 1.52499 15.0547 1.13851C13.5781 0.557266 12.248 1.89499 12.248 3.48072V7.31099C12.248 7.56496 12.3489 7.80852 12.5285 7.9881C12.7081 8.16767 12.9517 8.26856 13.2056 8.26856H17.0359C18.6226 8.26856 19.9593 6.93754 19.3781 5.46193Z" stroke="#086972" stroke-width="1.08225"/>
</svg>
