<svg width="16" height="17" viewBox="0 0 16 17" fill="none" xmlns="http://www.w3.org/2000/svg">
<path d="M6.86769 14.2512V2.74877C6.86769 1.65677 6.40177 1.21997 5.24425 1.21997H2.30313C1.14561 1.21997 0.679688 1.65677 0.679688 2.74877V14.2512C0.679688 15.3432 1.14561 15.78 2.30313 15.78H5.24425C6.40177 15.78 6.86769 15.3432 6.86769 14.2512ZM15.2397 5.96653V2.66141C15.2397 1.63493 14.7738 1.21997 13.6162 1.21997H10.6751C9.51761 1.21997 9.05169 1.63493 9.05169 2.66141V5.95925C9.05169 6.99301 9.51761 7.40069 10.6751 7.40069H13.6162C14.7738 7.40797 15.2397 6.99301 15.2397 5.96653ZM15.2397 14.1565V11.2154C15.2397 10.0579 14.7738 9.59197 13.6162 9.59197H10.6751C9.51761 9.59197 9.05169 10.0579 9.05169 11.2154V14.1565C9.05169 15.3141 9.51761 15.78 10.6751 15.78H13.6162C14.7738 15.78 15.2397 15.3141 15.2397 14.1565Z" fill="white" stroke="white" stroke-width="1.12" stroke-linecap="round" stroke-linejoin="round"/>
</svg>
