<svg width="16" height="16" viewBox="0 0 16 16" fill="none" xmlns="http://www.w3.org/2000/svg">
<path d="M6.94777 13.7512V2.24877C6.94777 1.15677 6.48185 0.719971 5.32433 0.719971H2.38321C1.22569 0.719971 0.759766 1.15677 0.759766 2.24877V13.7512C0.759766 14.8432 1.22569 15.28 2.38321 15.28H5.32433C6.48185 15.28 6.94777 14.8432 6.94777 13.7512ZM15.3198 5.46653V2.16141C15.3198 1.13493 14.8538 0.719971 13.6963 0.719971H10.7552C9.59769 0.719971 9.13177 1.13493 9.13177 2.16141V5.45925C9.13177 6.49301 9.59769 6.90069 10.7552 6.90069H13.6963C14.8538 6.90797 15.3198 6.49301 15.3198 5.46653ZM15.3198 13.6565V10.7154C15.3198 9.55789 14.8538 9.09197 13.6963 9.09197H10.7552C9.59769 9.09197 9.13177 9.55789 9.13177 10.7154V13.6565C9.13177 14.8141 9.59769 15.28 10.7552 15.28H13.6963C14.8538 15.28 15.3198 14.8141 15.3198 13.6565Z" stroke="#086972" stroke-width="1.12" stroke-linecap="round" stroke-linejoin="round"/>
</svg>
