<svg width="16" height="16" viewBox="0 0 16 16" fill="none" xmlns="http://www.w3.org/2000/svg">
<path d="M4.58042 9.09857V14.5357C4.58042 14.8608 4.45126 15.1726 4.22135 15.4025C3.99144 15.6325 3.67962 15.7616 3.35448 15.7616H1.91361C1.75195 15.7627 1.59168 15.7317 1.44202 15.6706C1.29236 15.6094 1.15627 15.5193 1.04159 15.4054C0.926908 15.2914 0.835894 15.1559 0.773788 15.0067C0.711682 14.8574 0.67971 14.6973 0.679714 14.5357V9.09857C0.678656 8.93624 0.70985 8.77531 0.771484 8.62513C0.833119 8.47495 0.923967 8.33851 1.03876 8.22372C1.15354 8.10893 1.28999 8.01808 1.44017 7.95645C1.59035 7.89481 1.75128 7.86362 1.91361 7.86468H3.35448C3.51621 7.86446 3.67637 7.89629 3.82572 7.95832C3.97508 8.02035 4.11066 8.11136 4.22465 8.22608C4.33864 8.34081 4.42876 8.47698 4.48983 8.62673C4.55089 8.77649 4.58168 8.93685 4.58042 9.09857ZM9.91403 1.4723V14.5357C9.91404 14.6973 9.88206 14.8574 9.81996 15.0067C9.75785 15.1559 9.66684 15.2914 9.55215 15.4054C9.43747 15.5193 9.30138 15.6094 9.15173 15.6706C9.00207 15.7317 8.8418 15.7627 8.68014 15.7616H7.23926C6.91339 15.7616 6.60074 15.6327 6.36957 15.403C6.1384 15.1734 6.00747 14.8615 6.00537 14.5357V1.4723C6.00746 1.14569 6.13812 0.833059 6.36907 0.602109C6.60002 0.37116 6.91266 0.24049 7.23926 0.238403H8.68014C9.00739 0.238403 9.32123 0.368403 9.55263 0.599803C9.78403 0.831204 9.91403 1.14505 9.91403 1.4723ZM15.2397 5.5959V14.5357C15.2397 14.8608 15.1105 15.1726 14.8806 15.4025C14.6507 15.6325 14.3389 15.7616 14.0138 15.7616H12.5729C12.4112 15.7629 12.2508 15.7321 12.101 15.671C11.9513 15.61 11.8151 15.5198 11.7004 15.4058C11.5857 15.2919 11.4947 15.1563 11.4326 15.0069C11.3706 14.8576 11.3388 14.6974 11.339 14.5357V5.5959C11.339 5.43386 11.3709 5.27341 11.4329 5.12371C11.4949 4.97401 11.5858 4.83798 11.7004 4.7234C11.815 4.60883 11.951 4.51794 12.1007 4.45593C12.2504 4.39392 12.4108 4.362 12.5729 4.362H14.0456C14.3659 4.37234 14.6696 4.50689 14.8925 4.73718C15.1153 4.96747 15.2399 5.27543 15.2397 5.5959Z" fill="white"/>
</svg>
