<svg width="16" height="17" viewBox="0 0 16 17" fill="none" xmlns="http://www.w3.org/2000/svg">
<path d="M3.00411 8.77273H1.48193C0.994466 8.77273 0.599609 9.16843 0.599609 9.65505V15.4053C0.599609 15.8919 0.995307 16.2876 1.48193 16.2876H3.00495C3.49326 16.2876 3.88811 15.8919 3.88811 15.4045V9.65505C3.88789 9.42089 3.79477 9.19639 3.62919 9.03081C3.46362 8.86523 3.23911 8.77211 3.00495 8.77189M8.6407 0.71228H7.11852C6.63022 0.71228 6.23536 1.10798 6.23536 1.59544V15.4036C6.23536 15.8919 6.63106 16.2868 7.11937 16.2868H8.6407C9.12901 16.2868 9.52386 15.8911 9.52386 15.4036V1.59629C9.52386 1.10798 9.12816 0.713122 8.63986 0.713122M14.2773 5.07085H12.7543C12.266 5.07085 11.8711 5.46655 11.8711 5.95486V15.4036C11.8711 15.8919 12.2668 16.2868 12.7543 16.2868H14.2764C14.5106 16.2866 14.7351 16.1934 14.9007 16.0279C15.0663 15.8623 15.1594 15.6378 15.1596 15.4036V5.95402C15.1596 5.46571 14.7639 5.07085 14.2756 5.07085" stroke="#086972" stroke-width="0.728" stroke-linecap="round" stroke-linejoin="round"/>
</svg>
