<svg width="117" height="33" viewBox="0 0 117 33" fill="none" xmlns="http://www.w3.org/2000/svg">
<path d="M15.0182 0.000854267C15.258 0.00131678 15.4978 0.00115686 15.7376 0.00107667C16.152 0.00102137 16.5664 0.00135095 16.9808 0.00195008C17.5799 0.00281571 18.179 0.00308826 18.7782 0.00322108C19.7505 0.0034525 20.7228 0.00415639 21.6951 0.00516158C22.6389 0.00613638 23.5828 0.00688607 24.5267 0.00733588C24.6141 0.00737766 24.6141 0.00737766 24.7033 0.00742029C24.9958 0.00755866 25.2882 0.00769264 25.5807 0.00782444C28.0026 0.00892161 30.4245 0.0107873 32.8464 0.0131599C32.8513 2.44565 32.855 4.87814 32.8572 7.31063C32.8575 7.59882 32.8577 7.88701 32.858 8.1752C32.8581 8.26125 32.8581 8.26125 32.8582 8.34904C32.8591 9.27383 32.8608 10.1986 32.8627 11.1234C32.8647 12.0747 32.8658 13.026 32.8663 13.9772C32.8666 14.5626 32.8675 15.1481 32.8692 15.7335C32.8703 16.1367 32.8706 16.54 32.8704 16.9432C32.8702 17.1747 32.8704 17.4062 32.8716 17.6377C32.8759 18.5615 32.8522 19.4723 32.7507 20.391C32.7464 20.4299 32.7422 20.4688 32.7378 20.5089C32.6521 21.2767 32.485 22.014 32.2668 22.7551C32.2536 22.8005 32.2405 22.8459 32.2269 22.8927C31.6092 24.9836 30.4391 27.0392 28.8702 28.5578C28.7857 28.6429 28.7103 28.7321 28.6343 28.8249C28.4586 29.0341 28.2591 29.2054 28.0514 29.3816C28.0033 29.4241 27.9551 29.4666 27.9055 29.5104C27.1714 30.1549 26.3836 30.7004 25.5307 31.1733C25.4296 31.2298 25.3296 31.2879 25.2299 31.3469C23.7742 32.1787 22.0666 32.6757 20.411 32.8803C20.3424 32.8892 20.2738 32.898 20.2031 32.9072C19.3191 33.0114 18.434 33.0008 17.5456 32.9986C17.3097 32.9982 17.0738 32.9983 16.838 32.9984C16.4306 32.9985 16.0232 32.9981 15.6159 32.9976C15.0269 32.9967 14.4379 32.9964 13.8489 32.9963C12.8931 32.996 11.9372 32.9953 10.9813 32.9943C10.0535 32.9934 9.12566 32.9926 8.19783 32.9922C8.11186 32.9921 8.11186 32.9921 8.02415 32.9921C7.73658 32.9919 7.44901 32.9918 7.16144 32.9917C4.78062 32.9906 2.39979 32.9887 0.0189695 32.9863C0.0153438 30.5246 0.0125619 28.0628 0.0108971 25.601C0.0106994 25.3098 0.0104949 25.0185 0.0102861 24.7272C0.0102446 24.6692 0.0102034 24.6113 0.0101606 24.5515C0.00947457 23.6152 0.00822965 22.679 0.00677408 21.7427C0.00529084 20.7805 0.00441648 19.8183 0.00409668 18.8561C0.00388081 18.2634 0.00320193 17.6707 0.00191134 17.0779C0.0010696 16.6703 0.000822994 16.2628 0.00102691 15.8552C0.00112721 15.6207 0.000985163 15.3863 0.000126406 15.1519C-0.0131756 11.3238 1.02226 7.68917 3.6352 4.81692C3.705 4.73941 3.77437 4.66149 3.84204 4.58209C4.93733 3.29812 6.33287 2.32503 7.81747 1.55049C7.87554 1.52019 7.87554 1.52019 7.93479 1.48928C9.12117 0.879239 10.3863 0.47545 11.6904 0.215266C11.7309 0.207045 11.7714 0.198823 11.8132 0.190353C12.8761 -0.01029 13.9415 -0.00175532 15.0182 0.000854267ZM11.2392 3.83662C11.1624 3.8598 11.1624 3.8598 11.0841 3.88344C8.26805 4.76707 5.96482 6.77961 4.59265 9.39004C4.0604 10.4366 3.72985 11.5471 3.5362 12.7028C3.52759 12.7528 3.51898 12.8027 3.51011 12.8542C3.34879 13.8879 3.38383 14.951 3.38531 15.9937C3.38536 16.1422 3.38532 16.2907 3.38529 16.4392C3.38526 16.7565 3.38542 17.0739 3.38572 17.3912C3.38615 17.85 3.38629 18.3088 3.38635 18.7676C3.38647 19.5122 3.38682 20.2569 3.38732 21.0016C3.3878 21.7242 3.38818 22.4468 3.3884 23.1694C3.38841 23.2141 3.38843 23.2588 3.38844 23.3048C3.38851 23.529 3.38858 23.7532 3.38864 23.9773C3.38919 25.8318 3.39011 27.6862 3.39129 29.5406C5.41671 29.543 7.44213 29.5449 9.46755 29.546C9.70702 29.5461 9.94648 29.5463 10.1859 29.5464C10.2575 29.5465 10.2575 29.5465 10.3304 29.5465C11.1009 29.547 11.8714 29.5478 12.6419 29.5488C13.4332 29.5498 14.2246 29.5504 15.016 29.5506C15.5038 29.5507 15.9916 29.5512 16.4794 29.552C16.8145 29.5526 17.1496 29.5528 17.4848 29.5526C17.6777 29.5526 17.8707 29.5527 18.0636 29.5532C19.0636 29.556 20.0108 29.5246 20.9873 29.2888C21.0461 29.2747 21.105 29.2606 21.1656 29.246C23.0441 28.7853 24.7007 27.857 26.1018 26.5189C26.1295 26.4928 26.1572 26.4667 26.1857 26.4397C26.6744 25.9759 27.089 25.4836 27.4718 24.9286C27.5085 24.8758 27.5085 24.8758 27.546 24.822C28.4692 23.4848 29.0656 21.9782 29.316 20.3696C29.3291 20.2892 29.3291 20.2892 29.3425 20.2071C29.4091 19.7763 29.4363 19.36 29.4341 18.9244C29.4342 18.8577 29.4343 18.791 29.4344 18.7224C29.4346 18.5397 29.4342 18.357 29.4337 18.1744C29.4332 17.9765 29.4334 17.7786 29.4334 17.5807C29.4335 17.2387 29.4332 16.8967 29.4326 16.5546C29.4317 16.0601 29.4314 15.5656 29.4313 15.071C29.4311 14.2685 29.4304 13.466 29.4294 12.6635C29.4284 11.8844 29.4277 11.1052 29.4272 10.3261C29.4272 10.278 29.4272 10.2299 29.4271 10.1803C29.427 9.93899 29.4269 9.69767 29.4267 9.45634C29.4256 7.4572 29.4238 5.45805 29.4214 3.45891C27.3687 3.45405 25.316 3.45031 23.2633 3.44808C23.0204 3.44782 22.7774 3.44754 22.5345 3.44726C22.4619 3.44718 22.4619 3.44718 22.3879 3.44709C21.6073 3.44617 20.8267 3.4445 20.046 3.44255C19.2436 3.44056 18.4412 3.43939 17.6388 3.43896C17.1446 3.43867 16.6504 3.43776 16.1563 3.43603C15.8163 3.4349 15.4763 3.43457 15.1363 3.43484C14.9409 3.43498 14.7454 3.43479 14.55 3.43363C13.4221 3.4273 12.3241 3.50196 11.2392 3.83662Z" fill="#17B978"/>
<path d="M8.55536 7.48779C8.55536 13.0508 8.55536 18.6139 8.55536 24.3455C9.75517 24.3455 10.955 24.3455 12.1911 24.3455C12.1911 22.3162 12.1911 20.2869 12.1911 18.1961C13.304 18.1961 14.4169 18.1961 15.5635 18.1961C15.5635 21.3625 15.5635 24.5289 15.5635 27.7912C12.1379 27.7912 8.71238 27.7912 5.18303 27.7912C5.17666 24.364 5.17666 24.364 5.17532 22.9273C5.17501 22.5985 5.17469 22.2698 5.17435 21.941C5.17431 21.8998 5.17427 21.8586 5.17422 21.8161C5.17354 21.1532 5.17229 20.4902 5.17084 19.8272C5.16935 19.1456 5.16848 18.4639 5.16816 17.7823C5.16795 17.3625 5.16727 16.9428 5.16598 16.523C5.16503 16.1998 5.16494 15.8765 5.16515 15.5533C5.16511 15.4217 5.1648 15.2901 5.16419 15.1585C5.15272 12.56 5.90839 10.1396 7.71228 8.22995C7.77742 8.15407 7.84222 8.07789 7.90658 8.00134C8.35073 7.48779 8.35073 7.48779 8.55536 7.48779Z" fill="#086972"/>
<path fill-rule="evenodd" clip-rule="evenodd" d="M27.6832 5.15527H17.3027V27.7912C17.4027 27.7912 17.5026 27.7914 17.6026 27.7917C18.2235 27.7932 18.8453 27.7947 19.4631 27.7382C21.9578 27.405 24.1607 26.0851 25.7194 24.1129L25.7862 24.0274C26.5246 23.0852 27.0799 21.9647 27.3766 20.8016L27.4098 20.6645C27.6407 19.7139 27.7063 18.7634 27.702 17.788C27.7014 17.6564 27.7011 17.5248 27.7011 17.3932C27.7013 17.07 27.7012 16.7467 27.7002 16.4235C27.6989 16.0037 27.6983 15.584 27.698 15.1642C27.6977 14.4825 27.6969 13.8009 27.6954 13.1193C27.6939 12.4563 27.6927 11.7933 27.692 11.1304L27.6919 11.0055L27.6909 10.0192C27.6905 9.59484 27.6902 9.29584 27.6899 8.99683C27.689 8.28352 27.6877 7.57022 27.6832 5.15527ZM24.2582 8.60092H20.6751V23.8152C20.7429 23.8152 20.7846 23.8152 20.8246 23.8067C20.8887 23.793 20.9482 23.7573 21.1031 23.6641L21.202 23.6032C21.6064 23.3584 21.9916 23.1091 22.3353 22.7809L22.4666 22.649C23.2262 21.8976 23.7598 21.0381 24.0522 20.0003L24.0869 19.8725C24.2878 19.1434 24.3265 18.4027 24.3241 17.6508C24.3238 17.5572 24.3237 17.4636 24.3237 17.37C24.3241 17.1133 24.3241 16.8566 24.3236 16.6C24.3231 16.3279 24.3229 16.0558 24.3229 15.7837C24.323 15.3277 24.3227 14.8717 24.322 14.4157C24.3212 13.8851 24.3206 13.3546 24.3206 12.824C24.3207 12.2535 24.3205 11.683 24.32 11.1125L24.3197 10.6224C24.3196 10.3613 24.3195 10.1001 24.3191 9.83895L24.3185 9.55162L24.3185 9.54912C24.3186 9.41584 24.3186 9.28255 24.3183 9.14927L24.3179 9.02893L24.3182 8.91489C24.318 8.89083 24.3191 8.8672 24.3202 8.84409C24.3243 8.75379 24.3281 8.67131 24.2582 8.60092Z" fill="#086972"/>
<path d="M47.5094 8.81087V10.5245H43.7845V12.9192H48.1689V14.6328H41.5742V5.03945H48.1834V6.75307H43.7845V8.81087H47.5094Z" fill="#17B978"/>
<path d="M49.024 7.50003H51.0894L51.1764 8.5033C51.6643 7.74658 52.3286 7.36821 53.1693 7.36821C54.638 7.36821 55.3723 8.31534 55.3723 10.2096V14.6328H53.1693V10.2023C53.1693 9.80194 53.0871 9.51634 52.9229 9.34546C52.7635 9.16971 52.5026 9.08183 52.1402 9.08183C51.7779 9.08183 51.4711 9.22341 51.2199 9.50657V14.6328H49.024V7.50003Z" fill="#17B978"/>
<path d="M58.2639 7.50003L59.2132 11.6962L59.3437 12.4505L59.3799 12.4578L59.5248 11.6962L60.4597 7.50003H62.7714L60.4814 14.6328H58.2421L55.9448 7.50003H58.2639Z" fill="#17B978"/>
<path d="M65.7499 7.50003V14.6328H63.5396V7.50003H65.7499ZM65.7499 4.35107V5.845H63.5396V4.35107H65.7499Z" fill="#17B978"/>
<path d="M69.3082 14.6328H67.0978V7.50003H69.1777L69.2502 8.54724C69.569 7.76122 70.0522 7.36821 70.6996 7.36821C70.9315 7.36821 71.1344 7.39506 71.3083 7.44877L71.0837 9.46263L70.2865 9.45531C69.7937 9.45531 69.4676 9.6213 69.3082 9.95328V14.6328Z" fill="#17B978"/>
<path d="M73.8302 11.0151V11.1543C73.8302 12.4334 74.2336 13.0729 75.0405 13.0729C75.8521 13.0729 76.2579 12.4334 76.2579 11.1543V11.0151C76.2579 9.73603 75.8521 9.09648 75.0405 9.09648C74.2336 9.09648 73.8302 9.73603 73.8302 11.0151ZM71.6272 11.1543V11.0151C71.6272 9.92155 71.9291 9.04277 72.533 8.37881C73.1369 7.71484 73.9728 7.38286 75.0405 7.38286C76.1082 7.38286 76.944 7.71484 77.5479 8.37881C78.1518 9.04277 78.4538 9.92155 78.4538 11.0151V11.1543C78.4538 12.2528 78.1518 13.134 77.5479 13.7979C76.944 14.457 76.1082 14.7866 75.0405 14.7866C73.9728 14.7866 73.1369 14.457 72.533 13.7979C71.9291 13.1389 71.6272 12.2576 71.6272 11.1543Z" fill="#17B978"/>
<path d="M79.3886 7.50003H81.454L81.541 8.5033C82.0289 7.74658 82.6932 7.36821 83.5338 7.36821C85.0026 7.36821 85.7369 8.31534 85.7369 10.2096V14.6328H83.5338V10.2023C83.5338 9.80194 83.4517 9.51634 83.2875 9.34546C83.128 9.16971 82.8671 9.08183 82.5048 9.08183C82.1424 9.08183 81.8357 9.22341 81.5844 9.50657V14.6328H79.3886V7.50003Z" fill="#17B978"/>
<path d="M93.1433 9.52122L93.1577 9.87273V14.6328H90.9547V10.2901C90.9547 9.841 90.887 9.52854 90.7518 9.35279C90.6165 9.17215 90.3991 9.08183 90.0996 9.08183C89.6986 9.08183 89.3797 9.22829 89.143 9.52122V14.6328H86.9326V7.50003H89.0053L89.0777 8.44472C89.5464 7.72705 90.2276 7.36821 91.1214 7.36821C92.0152 7.36821 92.6191 7.75878 92.9331 8.53992C93.3872 7.75878 94.066 7.36821 94.9695 7.36821C95.6748 7.36821 96.2184 7.61232 96.6 8.10053C96.9865 8.58386 97.1798 9.31373 97.1798 10.2901V14.6328H94.9695V10.2901C94.9695 9.841 94.9018 9.52854 94.7666 9.35279C94.6313 9.17215 94.4163 9.08183 94.1216 9.08183C93.7158 9.08183 93.3896 9.22829 93.1433 9.52122Z" fill="#17B978"/>
<path d="M102.419 10.2096C102.419 9.46263 102.115 9.08915 101.506 9.08915C100.912 9.08915 100.579 9.50901 100.506 10.3487L100.528 10.3854H102.419V10.2096ZM98.2451 11.3154V11.0591C98.2451 9.94596 98.5326 9.05254 99.1075 8.37881C99.6824 7.70508 100.482 7.37065 101.506 7.37554C102.463 7.37554 103.212 7.66358 103.753 8.23967C104.299 8.81576 104.572 9.60421 104.572 10.605V11.7767H100.542L100.528 11.8134C100.576 12.1942 100.726 12.4993 100.977 12.7288C101.228 12.9582 101.555 13.0729 101.956 13.0729C102.361 13.0729 102.685 13.0437 102.927 12.9851C103.168 12.9265 103.499 12.8093 103.919 12.6336L104.441 13.981C104.118 14.2202 103.709 14.4131 103.216 14.5595C102.729 14.706 102.212 14.7792 101.666 14.7792C100.637 14.7792 99.808 14.4546 99.1799 13.8053C98.5567 13.1559 98.2451 12.326 98.2451 11.3154Z" fill="#17B978"/>
<path d="M105.478 7.50003H107.543L107.63 8.5033C108.118 7.74658 108.782 7.36821 109.623 7.36821C111.091 7.36821 111.826 8.31534 111.826 10.2096V14.6328H109.623V10.2023C109.623 9.80194 109.541 9.51634 109.376 9.34546C109.217 9.16971 108.956 9.08183 108.594 9.08183C108.231 9.08183 107.925 9.22341 107.673 9.50657V14.6328H105.478V7.50003Z" fill="#17B978"/>
<path d="M113.435 5.74247H115.63V7.51468H116.826V9.05986H115.63V12.326C115.63 12.8044 115.821 13.0437 116.203 13.0437C116.44 13.0437 116.652 13.0217 116.841 12.9777L117 14.6255C116.551 14.7329 116.099 14.7866 115.645 14.7866C114.906 14.7866 114.353 14.5888 113.985 14.1934C113.618 13.7979 113.435 13.1804 113.435 12.3406V9.05986H112.442V7.51468H113.435V5.74247Z" fill="#17B978"/>
<path d="M45.7655 27.6473V27.6551C46.2431 27.6551 46.6026 27.5621 46.8439 27.3761C47.0853 27.1849 47.206 26.9189 47.206 26.5779C47.206 26.2369 47.093 25.9708 46.867 25.7797C46.6462 25.5834 46.22 25.369 45.5884 25.1365C44.2224 24.7077 43.2544 24.2608 42.6843 23.7958C42.1143 23.3257 41.8293 22.6695 41.8293 21.8274C41.8293 20.9801 42.1914 20.2956 42.9154 19.7738C43.6395 19.2468 44.569 18.9833 45.7039 18.9833C46.8439 18.9833 47.7683 19.2726 48.477 19.8513C49.1856 20.4299 49.5271 21.1739 49.5014 22.0831L49.486 22.1296H47.2137C47.2137 21.7112 47.075 21.3779 46.7977 21.1299C46.5255 20.882 46.1532 20.758 45.6808 20.758C45.2135 20.758 44.8437 20.8613 44.5716 21.0679C44.2994 21.2746 44.1633 21.5278 44.1633 21.8274C44.1633 22.1271 44.2917 22.3673 44.5485 22.5481C44.8052 22.7289 45.3187 22.9588 46.089 23.2378C47.2907 23.5943 48.1688 24.0257 48.7234 24.532C49.2781 25.0383 49.5554 25.728 49.5554 26.6011C49.5554 27.4743 49.2113 28.164 48.5232 28.6703C47.8402 29.1766 46.921 29.4297 45.7655 29.4297C44.985 29.4297 44.2789 29.3057 43.6472 29.0578C43.0156 28.8046 42.5072 28.4197 42.122 27.9031C41.742 27.3813 41.5597 26.7665 41.5751 26.0587L41.5828 26.0199H43.8706C43.8706 26.5934 44.0221 27.0093 44.3251 27.2676C44.6332 27.5208 45.1133 27.6473 45.7655 27.6473Z" fill="#086972"/>
<path d="M54.9166 24.5863C54.9166 23.7958 54.5931 23.4006 53.946 23.4006C53.3144 23.4006 52.9601 23.8449 52.883 24.7335L52.9061 24.7722H54.9166V24.5863ZM50.4797 25.7564V25.4852C50.4797 24.3073 50.7853 23.3618 51.3964 22.6489C52.0075 21.9359 52.8574 21.582 53.946 21.5872C54.9628 21.5872 55.7588 21.892 56.334 22.5016C56.9142 23.1113 57.2044 23.9456 57.2044 25.0047V26.2447H52.9215L52.9061 26.2834C52.9575 26.6864 53.1167 27.0093 53.3837 27.2521C53.6508 27.4949 53.9974 27.6163 54.4236 27.6163C54.855 27.6163 55.1991 27.5853 55.4558 27.5233C55.7126 27.4613 56.0644 27.3374 56.5111 27.1514L57.0657 28.5773C56.7217 28.8304 56.2877 29.0345 55.7639 29.1895C55.2453 29.3445 54.6958 29.422 54.1155 29.422C53.0217 29.422 52.141 29.0784 51.4734 28.3913C50.8109 27.7042 50.4797 26.8259 50.4797 25.7564Z" fill="#086972"/>
<path d="M60.5475 29.267H58.1981V21.7189H60.4088L60.4858 22.8271C60.8248 21.9953 61.3383 21.5794 62.0264 21.5794C62.2729 21.5794 62.4886 21.6078 62.6735 21.6647L62.4347 23.7958L61.5874 23.788C61.0636 23.788 60.7169 23.9637 60.5475 24.315V29.267Z" fill="#086972"/>
<path d="M65.3849 21.7189L66.394 26.1594L66.5326 26.9576L66.5712 26.9654L66.7252 26.1594L67.7189 21.7189H70.1761L67.742 29.267H65.3618L62.92 21.7189H65.3849Z" fill="#086972"/>
<path d="M73.342 21.7189V29.267H70.9926V21.7189H73.342ZM73.342 18.3866V19.9675H70.9926V18.3866H73.342Z" fill="#086972"/>
<path d="M76.7699 25.5937C76.7699 26.2602 76.8623 26.7639 77.0472 27.1049C77.232 27.4458 77.5453 27.6163 77.9869 27.6163C78.6083 27.6163 78.919 27.2779 78.919 26.6011H81.0604L81.0758 26.6399C81.0912 27.4613 80.8088 28.133 80.2285 28.6548C79.6533 29.1714 78.9061 29.4297 77.9869 29.4297C76.8674 29.4297 75.9944 29.081 75.3679 28.3835C74.7465 27.6861 74.4359 26.7561 74.4359 25.5937V25.431C74.4359 24.2737 74.7465 23.3463 75.3679 22.6489C75.9893 21.9462 76.8572 21.5949 77.9715 21.5949C78.9318 21.5949 79.6918 21.8636 80.2516 22.4009C80.8165 22.933 81.0912 23.6589 81.0758 24.5785L81.0604 24.625H78.919C78.919 24.253 78.8368 23.9585 78.6725 23.7415C78.5133 23.5194 78.2796 23.4083 77.9715 23.4083C77.5401 23.4083 77.232 23.5814 77.0472 23.9275C76.8623 24.2737 76.7699 24.7748 76.7699 25.431V25.5937Z" fill="#086972"/>
<path d="M86.2676 24.5863C86.2676 23.7958 85.9441 23.4006 85.297 23.4006C84.6654 23.4006 84.311 23.8449 84.234 24.7335L84.2571 24.7722H86.2676V24.5863ZM81.8307 25.7564V25.4852C81.8307 24.3073 82.1362 23.3618 82.7473 22.6489C83.3584 21.9359 84.2083 21.582 85.297 21.5872C86.3138 21.5872 87.1098 21.892 87.6849 22.5016C88.2652 23.1113 88.5554 23.9456 88.5554 25.0047V26.2447H84.2725L84.2571 26.2834C84.3085 26.6864 84.4677 27.0093 84.7347 27.2521C85.0017 27.4949 85.3484 27.6163 85.7746 27.6163C86.206 27.6163 86.55 27.5853 86.8068 27.5233C87.0635 27.4613 87.4153 27.3374 87.8621 27.1514L88.4167 28.5773C88.0726 28.8304 87.6387 29.0345 87.1149 29.1895C86.5962 29.3445 86.0468 29.422 85.4665 29.422C84.3727 29.422 83.492 29.0784 82.8244 28.3913C82.1619 27.7042 81.8307 26.8259 81.8307 25.7564Z" fill="#086972"/>
<path d="M92.5147 27.8721V27.8643C93.1514 27.8643 93.4698 27.6267 93.4698 27.1514C93.4698 26.955 93.3594 26.7871 93.1386 26.6476C92.9229 26.503 92.5455 26.3738 92.0063 26.2602C91.1127 26.0845 90.4477 25.8159 90.0112 25.4542C89.5798 25.0926 89.3642 24.5863 89.3642 23.9353C89.3642 23.2792 89.644 22.7264 90.2038 22.2769C90.7687 21.8222 91.5338 21.5949 92.4993 21.5949C93.4647 21.5949 94.2427 21.8197 94.8332 22.2691C95.4289 22.7134 95.7114 23.2947 95.6806 24.0128L95.6652 24.0515H93.3928C93.3928 23.7467 93.3158 23.5194 93.1617 23.3696C93.0128 23.2197 92.792 23.1448 92.4993 23.1448C92.2117 23.1448 91.9857 23.212 91.8214 23.3463C91.6571 23.4806 91.5749 23.6537 91.5749 23.8655C91.5749 24.0774 91.6776 24.2504 91.883 24.3848C92.0884 24.5191 92.4684 24.6405 93.0231 24.749C93.9628 24.935 94.6484 25.2088 95.0797 25.5704C95.5111 25.9321 95.7268 26.4487 95.7268 27.1204C95.7268 27.792 95.4264 28.3448 94.8255 28.7788C94.2247 29.2127 93.4313 29.4297 92.4453 29.4297C91.4594 29.4297 90.6608 29.1766 90.0497 28.6703C89.4438 28.164 89.1536 27.575 89.1793 26.9034L89.1947 26.8646H91.313C91.3335 27.5363 91.7341 27.8721 92.5147 27.8721Z" fill="#086972"/>
</svg>
