<svg width="36" height="22" viewBox="0 0 36 22" fill="none" xmlns="http://www.w3.org/2000/svg">
<path d="M3.79045 3.25139C8.5624 3.25144 13.2757 3.23949 17.9888 3.26401C18.7275 3.26785 19.2679 3.03937 19.6895 2.43963C20.0053 1.99036 20.367 1.57403 20.6969 1.13445C21.0156 0.709882 21.4324 0.507291 21.9573 0.509013C22.8374 0.511901 23.7181 0.530077 24.5972 0.500845C25.0394 0.486144 25.2055 0.662512 25.1868 1.08164C25.178 1.27817 25.1776 1.47556 25.1841 1.67221C25.1951 2.00366 25.0262 2.12931 24.715 2.12014C24.461 2.11266 24.2062 2.11101 23.9524 2.12202C23.0971 2.15914 22.7534 2.50703 22.7369 3.36518C22.7259 3.93602 22.7349 4.50724 22.7349 5.07829C22.7349 7.75631 22.7229 10.4344 22.7455 13.1123C22.7497 13.6118 22.6442 13.7909 22.1053 13.7892C15.9448 13.77 9.78436 13.7739 3.62391 13.7837C3.20671 13.7843 2.88049 13.686 2.58306 13.3777C2.03841 12.8133 1.46612 12.2753 0.894449 11.7381C0.617736 11.478 0.49847 11.1779 0.500015 10.7965C0.50855 8.68956 0.499052 6.58256 0.506722 4.47561C0.509795 3.63142 0.888882 3.26263 1.73695 3.25273C2.40179 3.24497 3.0668 3.25131 3.79045 3.25139Z" fill="white"/>
<path d="M14.4812 15.8578C12.6002 14.8332 10.5295 15.843 9.92727 17.7531C9.83799 18.0363 9.71682 18.1131 9.44454 18.1396C9.10871 18.1722 9.06609 17.9563 8.98553 17.7317C8.46571 16.2826 7.32845 15.4154 5.9745 15.4298C4.60501 15.4444 3.4592 16.311 2.99429 17.7591C2.84996 18.2086 2.55711 18.127 2.2577 18.1244C1.88227 18.1213 1.58084 17.9678 1.57064 17.5556C1.54627 16.571 1.56178 15.5854 1.55277 14.6003C1.55064 14.3669 1.64438 14.2786 1.87019 14.3026C1.98636 14.3149 2.10482 14.3057 2.22224 14.3057C9.22859 14.3057 16.2349 14.3059 23.2413 14.3055C24.0215 14.3054 24.0209 14.304 24.0208 13.5449C24.0205 10.727 24.0191 7.90919 24.0214 5.09135C24.0222 4.06905 24.2448 3.84939 25.2689 3.84848C27.1085 3.84684 28.9482 3.85406 30.7878 3.84232C31.1078 3.84027 31.3314 3.93354 31.542 4.18457C32.3873 5.19249 33.2468 6.18872 34.117 7.175C34.3528 7.44227 34.4591 7.71388 34.4538 8.07521C34.4353 9.35578 34.4576 10.6369 34.4406 11.9175C34.4346 12.3732 34.5693 12.6879 35.0383 12.7832C35.3962 12.8559 35.5009 13.0911 35.4992 13.4271C35.4934 14.57 35.5103 15.7132 35.4892 16.8557C35.4801 17.3482 35.2925 17.7827 34.8228 18.0217C34.2614 18.3074 33.8288 18.1341 33.6221 17.5568C33.1789 16.3187 31.9416 15.4324 30.6552 15.4312C29.3862 15.4302 28.1877 16.2558 27.7514 17.5379C27.5863 18.023 27.367 18.1421 26.8873 18.1391C23.4821 18.1178 20.0767 18.1234 16.6715 18.134C16.2852 18.1352 16.0502 18.0884 15.9196 17.6365C15.7004 16.8782 15.1902 16.3002 14.4812 15.8578Z" fill="white"/>
<path d="M11.1666 16.689C12.2069 15.8632 13.2941 15.7717 14.3441 16.3939C15.1606 16.8776 15.668 17.9959 15.5159 18.9767C15.3478 20.0617 14.5212 20.9162 13.4095 21.1544C12.4615 21.3575 11.3847 20.9025 10.8115 20.0567C10.2103 19.1695 10.2046 17.9933 10.8033 17.1286C10.9032 16.9843 11.0249 16.8553 11.1666 16.689Z" fill="white"/>
<path d="M33.2337 18.305C33.3236 19.6509 32.5445 20.7775 31.3332 21.1134C30.1575 21.4395 28.9266 20.8669 28.3447 19.7234C27.7989 18.6509 28.1073 17.2592 29.1226 16.503C30.6058 15.3984 32.9062 16.1251 33.2337 18.305Z" fill="white"/>
<path d="M7.87029 20.3455C6.80709 21.3356 5.6903 21.4749 4.59397 20.7828C3.61988 20.1678 3.15032 18.9464 3.48757 17.8652C3.81587 16.8127 4.53423 16.1665 5.61109 16.0143C6.71657 15.8582 7.60905 16.2963 8.18927 17.2579C8.7612 18.2057 8.6881 19.1641 8.07995 20.083C8.02609 20.1643 7.95902 20.2369 7.87029 20.3455Z" fill="white"/>
<path d="M8.75207 8.36782C8.44107 9.59565 8.14239 10.7766 7.83795 11.9561C7.78141 12.1751 7.75439 12.4878 7.42348 12.3878C7.14466 12.3037 7.24483 12.0476 7.29993 11.8339C7.83943 9.74063 8.3738 7.64607 8.91538 5.5534C8.96513 5.36116 8.96193 5.05722 9.28581 5.15297C9.56147 5.23445 9.50518 5.47174 9.44565 5.69537C9.2131 6.5691 8.9894 7.44523 8.75207 8.36782Z" fill="#086972"/>
<path d="M15.8275 8.98424C15.5591 10.0186 15.3104 11.0086 15.0551 11.9968C15.0016 12.2042 14.9409 12.4784 14.6565 12.3905C14.3795 12.3049 14.4759 12.0446 14.5294 11.8338C15.0603 9.74001 15.5873 7.64518 16.1284 5.55406C16.1749 5.37419 16.1591 5.05371 16.4808 5.11898C16.8669 5.19733 16.7296 5.52399 16.6752 5.74515C16.4127 6.81338 16.1242 7.87514 15.8275 8.98424Z" fill="#086972"/>
<path d="M19.0454 8.29582C19.2901 7.3362 19.5248 6.42411 19.7563 5.51118C19.8119 5.29162 19.874 5.05443 20.1635 5.13535C20.4184 5.20664 20.3676 5.44401 20.3193 5.63278C19.7747 7.76149 19.2268 9.88935 18.6721 12.0154C18.6193 12.2177 18.5397 12.4851 18.2577 12.3905C18.028 12.3134 18.0784 12.0713 18.1282 11.8764C18.4288 10.6982 18.7319 9.52075 19.0454 8.29582Z" fill="#086972"/>
<path d="M12.1348 9.2818C11.9035 10.2026 11.6814 11.0758 11.4535 11.9475C11.3964 12.1657 11.3745 12.4784 11.0466 12.3891C10.7597 12.3109 10.8665 12.0489 10.9195 11.8398C11.445 9.76952 11.9696 7.69905 12.4953 5.62882C12.5097 5.57194 12.5357 5.51804 12.5503 5.46118C12.6016 5.26115 12.6635 5.05465 12.9308 5.14064C13.1586 5.21389 13.113 5.4208 13.0717 5.58879C12.833 6.55932 12.5862 7.52785 12.3403 8.49657C12.2777 8.74318 12.2082 8.98801 12.1348 9.2818Z" fill="#086972"/>
<path d="M5.05742 6.5024C5.14126 6.15049 5.20759 5.84408 5.29071 5.54236C5.346 5.34165 5.37749 5.06246 5.67612 5.1354C5.97331 5.20797 5.88381 5.46225 5.83168 5.67115C5.58036 6.67816 5.33032 7.68551 5.07309 8.691C4.79147 9.79182 4.5063 10.8918 4.21311 11.9895C4.16112 12.1841 4.13603 12.4782 3.8299 12.3935C3.53321 12.3115 3.63875 12.0396 3.68836 11.8436C4.13548 10.0776 4.59276 8.31411 5.05742 6.5024Z" fill="#086972"/>
<path d="M32.4309 8.28544C32.4291 8.96632 32.4107 9.59679 32.4323 10.2259C32.4443 10.5779 32.3337 10.7246 31.9718 10.7226C30.2124 10.7128 28.4528 10.7137 26.6933 10.7223C26.3538 10.724 26.2059 10.6233 26.2115 10.2491C26.2308 8.95019 26.2325 7.65063 26.2111 6.35182C26.2053 5.99687 26.3325 5.92558 26.6496 5.9296C27.8225 5.94447 28.9956 5.93467 30.1686 5.93708C30.3222 5.93739 30.5048 5.89499 30.6138 6.02885C31.2154 6.76758 31.9837 7.36736 32.4309 8.28544Z" fill="#086972"/>
<path d="M13.3012 19.5737C12.6066 19.7208 12.0771 19.4487 11.9095 18.892C11.7553 18.3799 12.0367 17.7806 12.5273 17.5762C13.0404 17.3624 13.6699 17.606 13.9123 18.1122C14.1863 18.6843 13.9911 19.1835 13.3012 19.5737Z" fill="#086972"/>
<path d="M30.8628 19.636C29.9971 19.6031 29.5116 19.1222 29.5928 18.4306C29.6671 17.798 30.2472 17.3916 30.91 17.5255C31.4052 17.6256 31.6911 17.9624 31.7376 18.4502C31.7956 19.0584 31.4808 19.4468 30.8628 19.636Z" fill="#086972"/>
<path d="M5.29395 17.721C6.09189 17.3367 6.72668 17.5265 6.98127 18.185C7.2099 18.7763 6.9293 19.3834 6.31118 19.5974C5.80587 19.7724 5.3597 19.6181 5.08313 19.1868C4.76645 18.6929 4.8234 18.1832 5.29395 17.721Z" fill="#086972"/>
<path d="M12.9474 18.0168C13.4095 18.0623 13.576 18.3226 13.5111 18.706C13.4615 18.9992 13.2559 19.1993 12.9392 19.1862C12.6404 19.1738 12.4108 19.015 12.3746 18.6996C12.331 18.3194 12.4743 18.0485 12.9474 18.0168Z" fill="#086972"/>
<path d="M30.8636 18.0226C31.2673 18.2876 31.3905 18.6023 31.1068 18.9794C30.914 19.2356 30.6563 19.2505 30.3797 19.0946C30.1192 18.9476 30.0383 18.7173 30.1076 18.4485C30.2005 18.0885 30.4572 17.9527 30.8636 18.0226Z" fill="#086972"/>
<path d="M6.28554 18.092C6.62204 18.4317 6.63056 18.7514 6.33032 19.0542C6.11364 19.2727 5.85833 19.2162 5.63163 19.0647C5.35769 18.8817 5.33556 18.6023 5.4573 18.3313C5.61584 17.9783 5.91304 17.9404 6.28554 18.092Z" fill="#086972"/>
</svg>
