<svg width="34" height="34" viewBox="0 0 34 34" fill="none" xmlns="http://www.w3.org/2000/svg">
<circle cx="17" cy="17" r="17" transform="rotate(180 17 17)" fill="url(#paint0_linear_2007_17194)"/>
<path d="M10.872 22L8.28 14.716H8.232C8.24 14.876 8.252 15.092 8.268 15.364C8.284 15.636 8.296 15.928 8.304 16.24C8.312 16.552 8.316 16.86 8.316 17.164V22H7.14V13.432H8.988L11.448 20.308H11.496L14.028 13.432H15.876V22H14.616V17.092C14.616 16.812 14.62 16.524 14.628 16.228C14.644 15.924 14.656 15.64 14.664 15.376C14.68 15.112 14.692 14.896 14.7 14.728H14.652L11.988 22H10.872ZM20.2316 22.12C19.4556 22.12 18.8276 21.84 18.3476 21.28C17.8756 20.72 17.6396 19.888 17.6396 18.784C17.6396 17.672 17.8796 16.832 18.3596 16.264C18.8396 15.696 19.4716 15.412 20.2556 15.412C20.5836 15.412 20.8676 15.456 21.1076 15.544C21.3556 15.624 21.5676 15.736 21.7436 15.88C21.9276 16.024 22.0836 16.184 22.2116 16.36H22.2836C22.2676 16.248 22.2476 16.088 22.2236 15.88C22.1996 15.664 22.1876 15.472 22.1876 15.304V12.88H23.4596V22H22.4636L22.2476 21.136H22.1876C22.0676 21.32 21.9156 21.488 21.7316 21.64C21.5556 21.784 21.3436 21.9 21.0956 21.988C20.8476 22.076 20.5596 22.12 20.2316 22.12ZM20.5316 21.076C21.1556 21.076 21.5956 20.904 21.8516 20.56C22.1076 20.208 22.2356 19.684 22.2356 18.988V18.796C22.2356 18.036 22.1116 17.456 21.8636 17.056C21.6236 16.656 21.1756 16.456 20.5196 16.456C19.9996 16.456 19.6076 16.668 19.3436 17.092C19.0796 17.508 18.9476 18.08 18.9476 18.808C18.9476 19.536 19.0796 20.096 19.3436 20.488C19.6076 20.88 20.0036 21.076 20.5316 21.076ZM24.469 24.352C24.269 24.352 24.093 24.336 23.941 24.304C23.789 24.28 23.653 24.244 23.533 24.196V23.116C23.661 23.148 23.797 23.176 23.941 23.2C24.085 23.224 24.237 23.236 24.397 23.236C24.597 23.236 24.785 23.196 24.961 23.116C25.145 23.036 25.289 22.892 25.393 22.684C25.497 22.476 25.549 22.184 25.549 21.808V13.432H26.845V21.748C26.845 22.348 26.745 22.84 26.545 23.224C26.353 23.616 26.077 23.9 25.717 24.076C25.365 24.26 24.949 24.352 24.469 24.352Z" fill="white"/>
<defs>
<linearGradient id="paint0_linear_2007_17194" x1="26.0667" y1="2.83333" x2="6.23333" y2="28.3333" gradientUnits="userSpaceOnUse">
<stop stop-color="#086972"/>
<stop offset="1" stop-color="#C7ECD0"/>
</linearGradient>
</defs>
</svg>
