<svg width="36" height="35" viewBox="0 0 36 35" fill="none" xmlns="http://www.w3.org/2000/svg">
<g clip-path="url(#clip0_2007_48479)">
<path d="M12.75 28H17.125V26.25L23.25 29.75H18.875V31.5L12.75 28Z" fill="white"/>
<path d="M30.2492 15.8375V12.8625C30.2492 12.46 30.1092 12.075 29.8642 11.7775L23.7742 4.165C23.4417 3.745 22.9342 3.5 22.4092 3.5L12.7492 3.85C11.7867 3.85 1.19922 11.2875 1.19922 12.25V19.25C1.19922 20.2125 1.98672 21 2.94922 21L5.83671 21C6.23921 22.995 8.00671 24.5 10.1242 24.5C12.2417 24.5 14.0092 22.995 14.4117 21H25.0867C25.5767 23.415 28.0442 25.095 30.7217 24.3075C32.0692 23.905 33.1542 22.82 33.5567 21.4725C34.3442 18.795 32.6642 16.3275 30.2492 15.8375ZM10.1242 22.75C8.67171 22.75 7.49921 21.5775 7.49921 20.125C7.49921 18.6725 8.67171 17.5 10.1242 17.5C11.5767 17.5 12.7492 18.6725 12.7492 20.125C12.7492 21.5775 11.5767 22.75 10.1242 22.75ZM12.7492 12.25H1.19922L2.71735 11.55L3.21111 11.0434L4.41263 9.94334L6.96184 7.82887L9.72199 5.72433L11.15 4.72254L11.973 4.2L12.7492 3.85C12.7492 3.36 12.7492 5.25001 12.7492 5.25001V12.25ZM21.4992 19.25H14.4992V14H17.1242C17.6142 14 17.9992 13.615 17.9992 13.125C17.9992 12.635 17.6142 12.25 17.1242 12.25H14.4992V5.25H20.6242C21.1142 5.25 21.4992 5.635 21.4992 6.125V19.25ZM23.2492 12.25V6.3L28.0092 12.25H23.2492ZM29.3742 22.75C27.9217 22.75 26.7492 21.5775 26.7492 20.125C26.7492 18.6725 27.9217 17.5 29.3742 17.5C30.8267 17.5 31.9992 18.6725 31.9992 20.125C31.9992 21.5775 30.8267 22.75 29.3742 22.75Z" fill="white"/>
<rect x="1.19922" y="3.5" width="11.9" height="9.1" fill="#086972"/>
</g>
<defs>
<clipPath id="clip0_2007_48479">
<rect width="35" height="35" fill="white" transform="translate(0.5)"/>
</clipPath>
</defs>
</svg>
