<svg width="34" height="19" viewBox="0 0 34 19" fill="none" xmlns="http://www.w3.org/2000/svg">
<path d="M22.834 0.75H14.8132V6.58333H0.958984V13.875H3.87565C3.87565 15.0353 4.33659 16.1481 5.15706 16.9686C5.97753 17.7891 7.09033 18.25 8.25065 18.25C9.41097 18.25 10.5238 17.7891 11.3442 16.9686C12.1647 16.1481 12.6257 15.0353 12.6257 13.875H21.3757C21.3757 15.0353 21.8366 16.1481 22.6571 16.9686C23.4775 17.7891 24.5903 18.25 25.7507 18.25C26.911 18.25 28.0238 17.7891 28.8442 16.9686C29.6647 16.1481 30.1256 15.0353 30.1256 13.875H33.0423V9.5C33.0423 7.88125 31.7444 6.58333 30.1256 6.58333H27.209L22.834 0.75ZM17.0007 2.9375H22.1048L24.9631 6.58333H17.0007V2.9375ZM8.25065 11.6875C8.83081 11.6875 9.38721 11.918 9.79745 12.3282C10.2077 12.7384 10.4382 13.2948 10.4382 13.875C10.4382 14.4552 10.2077 15.0116 9.79745 15.4218C9.38721 15.832 8.83081 16.0625 8.25065 16.0625C7.67049 16.0625 7.11409 15.832 6.70385 15.4218C6.29362 15.0116 6.06315 14.4552 6.06315 13.875C6.06315 13.2948 6.29362 12.7384 6.70385 12.3282C7.11409 11.918 7.67049 11.6875 8.25065 11.6875ZM25.7507 11.6875C26.3308 11.6875 26.8872 11.918 27.2974 12.3282C27.7077 12.7384 27.9382 13.2948 27.9382 13.875C27.9382 14.4552 27.7077 15.0116 27.2974 15.4218C26.8872 15.832 26.3308 16.0625 25.7507 16.0625C25.1705 16.0625 24.6141 15.832 24.2039 15.4218C23.7936 15.0116 23.5632 14.4552 23.5632 13.875C23.5632 13.2948 23.7936 12.7384 24.2039 12.3282C24.6141 11.918 25.1705 11.6875 25.7507 11.6875Z" fill="white"/>
</svg>
